<!DOCTYPE svg PUBLIC "-//W3C//DTD SVG 1.1//EN" "http://www.w3.org/Graphics/SVG/1.1/DTD/svg11.dtd">
<!-- Uploaded to: SVG Repo, www.svgrepo.com, Transformed by: SVG Repo Mixer Tools -->
<svg fill="#000000" version="1.1" id="Capa_1" xmlns="http://www.w3.org/2000/svg" xmlns:xlink="http://www.w3.org/1999/xlink" width="800px" height="800px" viewBox="0 0 52.273 52.273" xml:space="preserve" stroke="#000000" stroke-width="0.0005227300000000001">
<g id="SVGRepo_bgCarrier" stroke-width="0"/>
<g id="SVGRepo_tracerCarrier" stroke-linecap="round" stroke-linejoin="round"/>
<g id="SVGRepo_iconCarrier"> <g> <g> <path d="M51.391,16.422c0-3.758-3.058-6.814-6.815-6.814h-6.886l-2.235-4c-0.336-0.511-1.065-1.151-2.75-1.151h-0.522H20.104 H19.58c-1.687,0-2.416,0.642-2.75,1.151l-2.238,4h-1.303C13,8.874,11.524,8.312,9.738,8.312c-1.938,0-3.505,0.659-3.593,1.482 c-3.008,0.708-5.256,3.398-5.256,6.564L0,41.002c0,3.76,3.057,6.814,6.813,6.814h38.648c3.76,0,6.814-3.057,6.812-6.879 L51.391,16.422z M45.463,44.264H6.814c-1.565,0-2.881-1.113-3.188-2.548l0.9-26.007c0.327-1.455,1.625-2.548,3.178-2.548h36.871 c1.801,0,3.264,1.463,3.264,3.325l0.89,24.515C48.725,42.8,47.262,44.264,45.463,44.264z"/> <path d="M26.136,14.026c-8.125,0-14.733,6.611-14.733,14.736c0,8.125,6.608,14.734,14.733,14.734 c8.125,0,14.736-6.609,14.736-14.734C40.872,20.637,34.262,14.026,26.136,14.026z M26.136,39.943 c-6.166,0-11.182-5.016-11.182-11.182c0-6.166,5.016-11.182,11.182-11.182c6.167,0,11.182,5.017,11.182,11.182 C37.318,34.928,32.303,39.943,26.136,39.943z"/> <path d="M26.136,19.103c-5.334,0-9.658,4.324-9.658,9.659c0,0.018,0.002,0.036,0.002,0.055c0.031,5.31,4.343,9.604,9.656,9.604 c5.316,0,9.627-4.295,9.658-9.604h-9.658V19.103z"/> </g> </g> </g>
</svg>