<!DOCTYPE svg PUBLIC "-//W3C//DTD SVG 1.1//EN" "http://www.w3.org/Graphics/SVG/1.1/DTD/svg11.dtd">
<!-- Uploaded to: SVG Repo, www.svgrepo.com, Transformed by: SVG Repo Mixer Tools -->
<svg fill="#000000" width="800px" height="800px" viewBox="0 0 64 64" id="Layer_1_1_" version="1.1" xml:space="preserve" xmlns="http://www.w3.org/2000/svg" xmlns:xlink="http://www.w3.org/1999/xlink" stroke="#000000" stroke-width="0.00064">
<g id="SVGRepo_bgCarrier" stroke-width="0"/>
<g id="SVGRepo_tracerCarrier" stroke-linecap="round" stroke-linejoin="round"/>
<g id="SVGRepo_iconCarrier"> <g> <rect height="2" width="6" x="30" y="57"/> <rect height="2" width="2" x="25" y="5"/> <rect height="2" width="8" x="29" y="5"/> <rect height="2" width="2" x="39" y="5"/> <path d="M63,32c0-7.439-5.111-13.69-12-15.473V6c0-2.757-2.243-5-5-5H20c-2.757,0-5,2.243-5,5v11.726C13.533,16.059,11.39,15,9,15 c-4.411,0-8,3.589-8,8c0,2.39,1.059,4.533,2.726,6H1v10h4v12c0,2.206,1.794,4,4,4s4-1.794,4-4V39h2v19c0,2.757,2.243,5,5,5h26 c2.757,0,5-2.243,5-5V47.473C57.889,45.69,63,39.439,63,32z M61,32c0,2.235-0.54,4.342-1.475,6.219 c-0.272-0.024-0.54-0.067-0.8-0.145C57.095,37.584,56,36.112,56,34.411c0-1.822-0.871-3.564-2.332-4.66l-0.139-0.104 C52.572,28.929,52,27.785,52,26.589v-0.293c0-2.002,0.473-4.006,1.369-5.797c0.12-0.24,0.264-0.481,0.428-0.728 C58.088,22.165,61,26.747,61,32z M20,3h26c1.654,0,3,1.346,3,3v3H17V6C17,4.346,18.346,3,20,3z M3,23c0-3.309,2.691-6,6-6 s6,2.691,6,6s-2.691,6-6,6S3,26.309,3,23z M11,51c0,1.103-0.897,2-2,2s-2-0.897-2-2V39h4V51z M5,37H3v-6h12v6h-2H5z M46,61H20 c-1.654,0-3-1.346-3-3v-3h32v3C49,59.654,47.654,61,46,61z M49,53H17V39v-1v-9h-2.726C15.941,27.533,17,25.39,17,23V11h32v5.139 C48.343,16.056,47.679,16,47,16v-3H19v38h28v-3c0.679,0,1.343-0.056,2-0.139V53z M33,32c0-5.846,3.604-10.86,8.705-12.953 c1.244,0.638,2.372,1.444,3.346,2.419C45.663,22.077,46,22.891,46,23.758v1.07C46,26.025,45.026,27,43.829,27 c-2.091,0-4.057,0.814-5.536,2.293C36.814,30.771,36,32.736,36,34.828C36,35.475,35.475,36,34.829,36H33.59 C33.21,34.731,33,33.39,33,32z M31,32c0,8.144,6.12,14.872,14,15.861V49H21V15h24v1.139C37.12,17.128,31,23.856,31,32z M40.882,44.573c1.614-2.691,2.743-5.597,3.355-8.656l0.222-1.111C44.668,33.76,45.594,33,46.661,33 c0.968,0,1.824,0.617,2.13,1.535l0.974,2.922C49.921,37.925,50,38.412,50,38.906c0,2.285,1.157,4.371,3.094,5.581l0.088,0.055 C51.314,45.466,49.221,46,47,46C44.804,46,42.733,45.478,40.882,44.573z M55.111,43.39l-0.957-0.599 C52.805,41.949,52,40.497,52,38.906c0-0.709-0.114-1.41-0.338-2.082l-0.974-2.922C50.109,32.166,48.491,31,46.661,31 c-2.017,0-3.768,1.436-4.163,3.413l-0.222,1.111c-0.569,2.845-1.644,5.538-3.15,8.042c-2.041-1.394-3.683-3.319-4.756-5.567h0.459 C36.577,38,38,36.577,38,34.828c0-1.557,0.606-3.021,1.707-4.121C40.808,29.606,42.272,29,43.829,29c2.3,0,4.171-1.871,4.171-4.172 v-1.07c0-1.401-0.545-2.718-1.535-3.707c-0.662-0.662-1.387-1.255-2.161-1.785C45.177,18.095,46.077,18,47,18 c1.752,0,3.422,0.338,4.969,0.928c-0.141,0.227-0.277,0.453-0.39,0.677C50.546,21.672,50,23.985,50,26.296v0.293 c0,1.822,0.871,3.564,2.332,4.66l0.139,0.104C53.428,32.071,54,33.215,54,34.411c0,2.592,1.667,4.833,4.149,5.578 c0.093,0.028,0.19,0.04,0.285,0.063C57.521,41.344,56.397,42.471,55.111,43.39z"/> </g> </g>
</svg>